<?xml version="1.0" encoding="utf-8" standalone="no"?>
<!DOCTYPE svg PUBLIC "-//W3C//DTD SVG 1.1//EN"
  "http://www.w3.org/Graphics/SVG/1.1/DTD/svg11.dtd">
<svg xmlns:xlink="http://www.w3.org/1999/xlink" width="531.36pt" height="530.64pt" viewBox="0 0 531.36 530.64" xmlns="http://www.w3.org/2000/svg" version="1.1">
 <metadata>
  <rdf:RDF xmlns:dc="http://purl.org/dc/elements/1.1/" xmlns:cc="http://creativecommons.org/ns#" xmlns:rdf="http://www.w3.org/1999/02/22-rdf-syntax-ns#">
   <cc:Work>
    <dc:type rdf:resource="http://purl.org/dc/dcmitype/StillImage"/>
    <dc:date>2024-06-19T12:10:53.666896</dc:date>
    <dc:format>image/svg+xml</dc:format>
    <dc:creator>
     <cc:Agent>
      <dc:title>Matplotlib v3.6.3, https://matplotlib.org/</dc:title>
     </cc:Agent>
    </dc:creator>
   </cc:Work>
  </rdf:RDF>
 </metadata>
 <defs>
  <style type="text/css">*{stroke-linejoin: round; stroke-linecap: butt}</style>
 </defs>
 <g id="figure_1">
  <g id="patch_1">
   <path d="M 0 530.64 
L 531.36 530.64 
L 531.36 0 
L 0 0 
z
" style="fill: #ffffff"/>
  </g>
  <g id="axes_1">
   <g id="patch_2">
    <path d="M 0 530.64 
L 531.36 530.64 
L 531.36 0 
L 0 0 
z
" style="fill: #ffffff"/>
   </g>
   <g id="LineCollection_1">
    <path d="M 58.763444 228.500717 
L 55.149282 102.517203 
" clip-path="url(#p91bf959fdb)" style="fill: none; stroke: #000000; stroke-width: 3"/>
    <path d="M 58.763444 228.500717 
L 36.992648 355.714982 
" clip-path="url(#p91bf959fdb)" style="fill: none; stroke: #000000; stroke-width: 3"/>
    <path d="M 58.763444 228.500717 
L 181.358854 250.590449 
" clip-path="url(#p91bf959fdb)" style="fill: none; stroke-dasharray: 2,3.3; stroke-dashoffset: 0; stroke: #000000; stroke-width: 2"/>
    <path d="M 58.763444 228.500717 
L 194.467582 141.797134 
" clip-path="url(#p91bf959fdb)" style="fill: none; stroke-dasharray: 2,3.3; stroke-dashoffset: 0; stroke: #000000; stroke-width: 2"/>
    <path d="M 58.763444 228.500717 
L 197.271529 334.031267 
" clip-path="url(#p91bf959fdb)" style="fill: none; stroke-dasharray: 2,3.3; stroke-dashoffset: 0; stroke: #000000; stroke-width: 2"/>
    <path d="M 474.83895 301.143896 
L 479.283852 428.122797 
" clip-path="url(#p91bf959fdb)" style="fill: none; stroke: #000000; stroke-width: 3"/>
    <path d="M 474.83895 301.143896 
L 494.367352 173.420633 
" clip-path="url(#p91bf959fdb)" style="fill: none; stroke: #000000; stroke-width: 3"/>
    <path d="M 474.83895 301.143896 
L 352.590356 280.752524 
" clip-path="url(#p91bf959fdb)" style="fill: none; stroke-dasharray: 2,3.3; stroke-dashoffset: 0; stroke: #000000; stroke-width: 2"/>
    <path d="M 474.83895 301.143896 
L 335.505645 196.811469 
" clip-path="url(#p91bf959fdb)" style="fill: none; stroke-dasharray: 2,3.3; stroke-dashoffset: 0; stroke: #000000; stroke-width: 2"/>
    <path d="M 474.83895 301.143896 
L 336.924356 389.014067 
" clip-path="url(#p91bf959fdb)" style="fill: none; stroke-dasharray: 2,3.3; stroke-dashoffset: 0; stroke: #000000; stroke-width: 2"/>
    <path d="M 36.992648 355.714982 
L 197.271529 334.031267 
" clip-path="url(#p91bf959fdb)" style="fill: none; stroke-dasharray: 2,3.3; stroke-dashoffset: 0; stroke: #000000; stroke-width: 2"/>
    <path d="M 36.992648 355.714982 
L 181.358854 250.590449 
" clip-path="url(#p91bf959fdb)" style="fill: none; stroke-dasharray: 2,3.3; stroke-dashoffset: 0; stroke: #000000; stroke-width: 2"/>
    <path d="M 479.283852 428.122797 
L 336.924356 389.014067 
" clip-path="url(#p91bf959fdb)" style="fill: none; stroke-dasharray: 2,3.3; stroke-dashoffset: 0; stroke: #000000; stroke-width: 2"/>
    <path d="M 479.283852 428.122797 
L 352.590356 280.752524 
" clip-path="url(#p91bf959fdb)" style="fill: none; stroke-dasharray: 2,3.3; stroke-dashoffset: 0; stroke: #000000; stroke-width: 2"/>
    <path d="M 55.149282 102.517203 
L 194.467582 141.797134 
" clip-path="url(#p91bf959fdb)" style="fill: none; stroke-dasharray: 2,3.3; stroke-dashoffset: 0; stroke: #000000; stroke-width: 2"/>
    <path d="M 55.149282 102.517203 
L 181.358854 250.590449 
" clip-path="url(#p91bf959fdb)" style="fill: none; stroke-dasharray: 2,3.3; stroke-dashoffset: 0; stroke: #000000; stroke-width: 2"/>
    <path d="M 494.367352 173.420633 
L 335.505645 196.811469 
" clip-path="url(#p91bf959fdb)" style="fill: none; stroke-dasharray: 2,3.3; stroke-dashoffset: 0; stroke: #000000; stroke-width: 2"/>
    <path d="M 494.367352 173.420633 
L 352.590356 280.752524 
" clip-path="url(#p91bf959fdb)" style="fill: none; stroke-dasharray: 2,3.3; stroke-dashoffset: 0; stroke: #000000; stroke-width: 2"/>
    <path d="M 181.358854 250.590449 
L 194.467582 141.797134 
" clip-path="url(#p91bf959fdb)" style="fill: none; stroke: #000000; stroke-width: 3"/>
    <path d="M 181.358854 250.590449 
L 197.271529 334.031267 
" clip-path="url(#p91bf959fdb)" style="fill: none; stroke: #000000; stroke-width: 3"/>
    <path d="M 181.358854 250.590449 
L 335.505645 196.811469 
" clip-path="url(#p91bf959fdb)" style="fill: none; stroke-dasharray: 2,3.3; stroke-dashoffset: 0; stroke: #000000; stroke-width: 2"/>
    <path d="M 181.358854 250.590449 
L 352.590356 280.752524 
" clip-path="url(#p91bf959fdb)" style="fill: none; stroke-dasharray: 2,3.3; stroke-dashoffset: 0; stroke: #000000; stroke-width: 2"/>
    <path d="M 181.358854 250.590449 
L 336.924356 389.014067 
" clip-path="url(#p91bf959fdb)" style="fill: none; stroke-dasharray: 2,3.3; stroke-dashoffset: 0; stroke: #000000; stroke-width: 2"/>
    <path d="M 352.590356 280.752524 
L 336.924356 389.014067 
" clip-path="url(#p91bf959fdb)" style="fill: none; stroke: #000000; stroke-width: 3"/>
    <path d="M 352.590356 280.752524 
L 335.505645 196.811469 
" clip-path="url(#p91bf959fdb)" style="fill: none; stroke: #000000; stroke-width: 3"/>
    <path d="M 352.590356 280.752524 
L 197.271529 334.031267 
" clip-path="url(#p91bf959fdb)" style="fill: none; stroke-dasharray: 2,3.3; stroke-dashoffset: 0; stroke: #000000; stroke-width: 2"/>
    <path d="M 352.590356 280.752524 
L 194.467582 141.797134 
" clip-path="url(#p91bf959fdb)" style="fill: none; stroke-dasharray: 2,3.3; stroke-dashoffset: 0; stroke: #000000; stroke-width: 2"/>
    <path d="M 197.271529 334.031267 
L 336.924356 389.014067 
" clip-path="url(#p91bf959fdb)" style="fill: none; stroke-dasharray: 2,3.3; stroke-dashoffset: 0; stroke: #000000; stroke-width: 2"/>
    <path d="M 197.271529 334.031267 
L 335.505645 196.811469 
" clip-path="url(#p91bf959fdb)" style="fill: none; stroke-dasharray: 2,3.3; stroke-dashoffset: 0; stroke: #000000; stroke-width: 2"/>
    <path d="M 194.467582 141.797134 
L 335.505645 196.811469 
" clip-path="url(#p91bf959fdb)" style="fill: none; stroke-dasharray: 2,3.3; stroke-dashoffset: 0; stroke: #000000; stroke-width: 2"/>
   </g>
   <g id="PathCollection_1">
    <path d="M 58.763444 232.80899 
C 59.906011 232.80899 61.001935 232.355043 61.809852 231.547126 
C 62.617769 230.739209 63.071716 229.643285 63.071716 228.500717 
C 63.071716 227.35815 62.617769 226.262226 61.809852 225.454309 
C 61.001935 224.646392 59.906011 224.192445 58.763444 224.192445 
C 57.620876 224.192445 56.524952 224.646392 55.717035 225.454309 
C 54.909118 226.262226 54.455171 227.35815 54.455171 228.500717 
C 54.455171 229.643285 54.909118 230.739209 55.717035 231.547126 
C 56.524952 232.355043 57.620876 232.80899 58.763444 232.80899 
z
" clip-path="url(#p91bf959fdb)" style="fill: #cbaed6; stroke: #cbaed6"/>
    <path d="M 474.83895 305.458927 
C 475.98331 305.458927 477.080953 305.004268 477.890138 304.195084 
C 478.699322 303.385899 479.153981 302.288256 479.153981 301.143896 
C 479.153981 299.999537 478.699322 298.901893 477.890138 298.092709 
C 477.080953 297.283525 475.98331 296.828866 474.83895 296.828866 
C 473.694591 296.828866 472.596947 297.283525 471.787763 298.092709 
C 470.978579 298.901893 470.52392 299.999537 470.52392 301.143896 
C 470.52392 302.288256 470.978579 303.385899 471.787763 304.195084 
C 472.596947 305.004268 473.694591 305.458927 474.83895 305.458927 
z
" clip-path="url(#p91bf959fdb)" style="fill: #cbaed6; stroke: #cbaed6"/>
    <path d="M 36.992648 360.023253 
C 38.135215 360.023253 39.231139 359.569307 40.039056 358.76139 
C 40.846973 357.953473 41.300919 356.857549 41.300919 355.714982 
C 41.300919 354.572416 40.846973 353.476491 40.039056 352.668575 
C 39.231139 351.860658 38.135215 351.406711 36.992648 351.406711 
C 35.850082 351.406711 34.754157 351.860658 33.946241 352.668575 
C 33.138324 353.476491 32.684377 354.572416 32.684377 355.714982 
C 32.684377 356.857549 33.138324 357.953473 33.946241 358.76139 
C 34.754157 359.569307 35.850082 360.023253 36.992648 360.023253 
z
" clip-path="url(#p91bf959fdb)" style="fill: #cbaed6; stroke: #cbaed6"/>
    <path d="M 479.283852 432.437814 
C 480.428208 432.437814 481.525848 431.983156 482.33503 431.173975 
C 483.144212 430.364793 483.598869 429.267153 483.598869 428.122797 
C 483.598869 426.978441 483.144212 425.880801 482.33503 425.071619 
C 481.525848 424.262437 480.428208 423.80778 479.283852 423.80778 
C 478.139496 423.80778 477.041856 424.262437 476.232674 425.071619 
C 475.423493 425.880801 474.968835 426.978441 474.968835 428.122797 
C 474.968835 429.267153 475.423493 430.364793 476.232674 431.173975 
C 477.041856 431.983156 478.139496 432.437814 479.283852 432.437814 
z
" clip-path="url(#p91bf959fdb)" style="fill: #cbaed6; stroke: #cbaed6"/>
    <path d="M 55.149282 106.825475 
C 56.291849 106.825475 57.387773 106.371528 58.19569 105.563611 
C 59.003607 104.755694 59.457553 103.65977 59.457553 102.517203 
C 59.457553 101.374636 59.003607 100.278712 58.19569 99.470795 
C 57.387773 98.662878 56.291849 98.208932 55.149282 98.208932 
C 54.006715 98.208932 52.910791 98.662878 52.102874 99.470795 
C 51.294957 100.278712 50.84101 101.374636 50.84101 102.517203 
C 50.84101 103.65977 51.294957 104.755694 52.102874 105.563611 
C 52.910791 106.371528 54.006715 106.825475 55.149282 106.825475 
z
" clip-path="url(#p91bf959fdb)" style="fill: #cbaed6; stroke: #cbaed6"/>
    <path d="M 494.367352 177.735651 
C 495.511708 177.735651 496.609348 177.280993 497.41853 176.471811 
C 498.227713 175.662629 498.68237 174.564989 498.68237 173.420633 
C 498.68237 172.276276 498.227713 171.178636 497.41853 170.369454 
C 496.609348 169.560272 495.511708 169.105614 494.367352 169.105614 
C 493.222995 169.105614 492.125355 169.560272 491.316173 170.369454 
C 490.506991 171.178636 490.052333 172.276276 490.052333 173.420633 
C 490.052333 174.564989 490.506991 175.662629 491.316173 176.471811 
C 492.125355 177.280993 493.222995 177.735651 494.367352 177.735651 
z
" clip-path="url(#p91bf959fdb)" style="fill: #cbaed6; stroke: #cbaed6"/>
    <path d="M 181.358854 256.053201 
C 182.807593 256.053201 184.19719 255.477611 185.221603 254.453198 
C 186.246016 253.428785 186.821606 252.039188 186.821606 250.590449 
C 186.821606 249.14171 186.246016 247.752112 185.221603 246.727699 
C 184.19719 245.703286 182.807593 245.127696 181.358854 245.127696 
C 179.910115 245.127696 178.520517 245.703286 177.496104 246.727699 
C 176.471691 247.752112 175.896101 249.14171 175.896101 250.590449 
C 175.896101 252.039188 176.471691 253.428785 177.496104 254.453198 
C 178.520517 255.477611 179.910115 256.053201 181.358854 256.053201 
z
" clip-path="url(#p91bf959fdb)" style="fill: #d6b1d6; stroke: #d6b1d6"/>
    <path d="M 352.590356 286.210253 
C 354.037763 286.210253 355.426082 285.635192 356.449553 284.611721 
C 357.473024 283.58825 358.048085 282.19993 358.048085 280.752524 
C 358.048085 279.305117 357.473024 277.916798 356.449553 276.893327 
C 355.426082 275.869856 354.037763 275.294795 352.590356 275.294795 
C 351.142949 275.294795 349.75463 275.869856 348.731159 276.893327 
C 347.707688 277.916798 347.132627 279.305117 347.132627 280.752524 
C 347.132627 282.19993 347.707688 283.58825 348.731159 284.611721 
C 349.75463 285.635192 351.142949 286.210253 352.590356 286.210253 
z
" clip-path="url(#p91bf959fdb)" style="fill: #d6b1d6; stroke: #d6b1d6"/>
    <path d="M 197.271529 339.494032 
C 198.720272 339.494032 200.109872 338.918441 201.134288 337.894025 
C 202.158703 336.86961 202.734295 335.480009 202.734295 334.031267 
C 202.734295 332.582525 202.158703 331.192924 201.134288 330.168509 
C 200.109872 329.144093 198.720272 328.568502 197.271529 328.568502 
C 195.822787 328.568502 194.433187 329.144093 193.408771 330.168509 
C 192.384356 331.192924 191.808764 332.582525 191.808764 334.031267 
C 191.808764 335.480009 192.384356 336.86961 193.408771 337.894025 
C 194.433187 338.918441 195.822787 339.494032 197.271529 339.494032 
z
" clip-path="url(#p91bf959fdb)" style="fill: #d6b1d6; stroke: #d6b1d6"/>
    <path d="M 336.924356 394.47181 
C 338.371766 394.47181 339.760089 393.896748 340.783562 392.873274 
C 341.807036 391.8498 342.382098 390.461477 342.382098 389.014067 
C 342.382098 387.566657 341.807036 386.178334 340.783562 385.15486 
C 339.760089 384.131387 338.371766 383.556324 336.924356 383.556324 
C 335.476945 383.556324 334.088622 384.131387 333.065149 385.15486 
C 332.041675 386.178334 331.466613 387.566657 331.466613 389.014067 
C 331.466613 390.461477 332.041675 391.8498 333.065149 392.873274 
C 334.088622 393.896748 335.476945 394.47181 336.924356 394.47181 
z
" clip-path="url(#p91bf959fdb)" style="fill: #d6b1d6; stroke: #d6b1d6"/>
    <path d="M 194.467582 147.259896 
C 195.916323 147.259896 197.305923 146.684305 198.330338 145.65989 
C 199.354753 144.635475 199.930344 143.245875 199.930344 141.797134 
C 199.930344 140.348392 199.354753 138.958792 198.330338 137.934377 
C 197.305923 136.909962 195.916323 136.334371 194.467582 136.334371 
C 193.01884 136.334371 191.62924 136.909962 190.604825 137.934377 
C 189.58041 138.958792 189.004819 140.348392 189.004819 141.797134 
C 189.004819 143.245875 189.58041 144.635475 190.604825 145.65989 
C 191.62924 146.684305 193.01884 147.259896 194.467582 147.259896 
z
" clip-path="url(#p91bf959fdb)" style="fill: #d6b1d6; stroke: #d6b1d6"/>
    <path d="M 335.505645 202.269185 
C 336.953048 202.269185 338.341364 201.694125 339.364832 200.670657 
C 340.388301 199.647188 340.96336 198.258872 340.96336 196.811469 
C 340.96336 195.364066 340.388301 193.97575 339.364832 192.952282 
C 338.341364 191.928814 336.953048 191.353754 335.505645 191.353754 
C 334.058242 191.353754 332.669926 191.928814 331.646457 192.952282 
C 330.622989 193.97575 330.04793 195.364066 330.04793 196.811469 
C 330.04793 198.258872 330.622989 199.647188 331.646457 200.670657 
C 332.669926 201.694125 334.058242 202.269185 335.505645 202.269185 
z
" clip-path="url(#p91bf959fdb)" style="fill: #d6b1d6; stroke: #d6b1d6"/>
   </g>
   <g id="patch_3">
    <path d="M 0 530.64 
L 0 0 
" style="fill: none; stroke: #000000; stroke-width: 0.8; stroke-linejoin: miter; stroke-linecap: square"/>
   </g>
   <g id="patch_4">
    <path d="M 531.36 530.64 
L 531.36 0 
" style="fill: none; stroke: #000000; stroke-width: 0.8; stroke-linejoin: miter; stroke-linecap: square"/>
   </g>
   <g id="patch_5">
    <path d="M 0 530.64 
L 531.36 530.64 
" style="fill: none; stroke: #000000; stroke-width: 0.8; stroke-linejoin: miter; stroke-linecap: square"/>
   </g>
   <g id="patch_6">
    <path d="M 0 0 
L 531.36 0 
" style="fill: none; stroke: #000000; stroke-width: 0.8; stroke-linejoin: miter; stroke-linecap: square"/>
   </g>
   <g id="text_1">
    <g clip-path="url(#p91bf959fdb)">
     <!-- A1 -->
     <g transform="translate(50.841569 231.811967) scale(0.12 -0.12)">
      <defs>
       <path id="DejaVuSans-41" d="M 2188 4044 
L 1331 1722 
L 3047 1722 
L 2188 4044 
z
M 1831 4666 
L 2547 4666 
L 4325 0 
L 3669 0 
L 3244 1197 
L 1141 1197 
L 716 0 
L 50 0 
L 1831 4666 
z
" transform="scale(0.015625)"/>
       <path id="DejaVuSans-31" d="M 794 531 
L 1825 531 
L 1825 4091 
L 703 3866 
L 703 4441 
L 1819 4666 
L 2450 4666 
L 2450 531 
L 3481 531 
L 3481 0 
L 794 0 
L 794 531 
z
" transform="scale(0.015625)"/>
      </defs>
      <use xlink:href="#DejaVuSans-41"/>
      <use xlink:href="#DejaVuSans-31" x="68.408203"/>
     </g>
    </g>
   </g>
   <g id="text_2">
    <g clip-path="url(#p91bf959fdb)">
     <!-- A2 -->
     <g transform="translate(466.917075 304.455146) scale(0.12 -0.12)">
      <defs>
       <path id="DejaVuSans-32" d="M 1228 531 
L 3431 531 
L 3431 0 
L 469 0 
L 469 531 
Q 828 903 1448 1529 
Q 2069 2156 2228 2338 
Q 2531 2678 2651 2914 
Q 2772 3150 2772 3378 
Q 2772 3750 2511 3984 
Q 2250 4219 1831 4219 
Q 1534 4219 1204 4116 
Q 875 4013 500 3803 
L 500 4441 
Q 881 4594 1212 4672 
Q 1544 4750 1819 4750 
Q 2544 4750 2975 4387 
Q 3406 4025 3406 3419 
Q 3406 3131 3298 2873 
Q 3191 2616 2906 2266 
Q 2828 2175 2409 1742 
Q 1991 1309 1228 531 
z
" transform="scale(0.015625)"/>
      </defs>
      <use xlink:href="#DejaVuSans-41"/>
      <use xlink:href="#DejaVuSans-32" x="68.408203"/>
     </g>
    </g>
   </g>
   <g id="text_3">
    <g clip-path="url(#p91bf959fdb)">
     <!-- A3 -->
     <g transform="translate(29.070773 359.026232) scale(0.12 -0.12)">
      <defs>
       <path id="DejaVuSans-33" d="M 2597 2516 
Q 3050 2419 3304 2112 
Q 3559 1806 3559 1356 
Q 3559 666 3084 287 
Q 2609 -91 1734 -91 
Q 1441 -91 1130 -33 
Q 819 25 488 141 
L 488 750 
Q 750 597 1062 519 
Q 1375 441 1716 441 
Q 2309 441 2620 675 
Q 2931 909 2931 1356 
Q 2931 1769 2642 2001 
Q 2353 2234 1838 2234 
L 1294 2234 
L 1294 2753 
L 1863 2753 
Q 2328 2753 2575 2939 
Q 2822 3125 2822 3475 
Q 2822 3834 2567 4026 
Q 2313 4219 1838 4219 
Q 1578 4219 1281 4162 
Q 984 4106 628 3988 
L 628 4550 
Q 988 4650 1302 4700 
Q 1616 4750 1894 4750 
Q 2613 4750 3031 4423 
Q 3450 4097 3450 3541 
Q 3450 3153 3228 2886 
Q 3006 2619 2597 2516 
z
" transform="scale(0.015625)"/>
      </defs>
      <use xlink:href="#DejaVuSans-41"/>
      <use xlink:href="#DejaVuSans-33" x="68.408203"/>
     </g>
    </g>
   </g>
   <g id="text_4">
    <g clip-path="url(#p91bf959fdb)">
     <!-- A4 -->
     <g transform="translate(471.361977 431.434047) scale(0.12 -0.12)">
      <defs>
       <path id="DejaVuSans-34" d="M 2419 4116 
L 825 1625 
L 2419 1625 
L 2419 4116 
z
M 2253 4666 
L 3047 4666 
L 3047 1625 
L 3713 1625 
L 3713 1100 
L 3047 1100 
L 3047 0 
L 2419 0 
L 2419 1100 
L 313 1100 
L 313 1709 
L 2253 4666 
z
" transform="scale(0.015625)"/>
      </defs>
      <use xlink:href="#DejaVuSans-41"/>
      <use xlink:href="#DejaVuSans-34" x="68.408203"/>
     </g>
    </g>
   </g>
   <g id="text_5">
    <g clip-path="url(#p91bf959fdb)">
     <!-- A5 -->
     <g transform="translate(47.227407 105.828453) scale(0.12 -0.12)">
      <defs>
       <path id="DejaVuSans-35" d="M 691 4666 
L 3169 4666 
L 3169 4134 
L 1269 4134 
L 1269 2991 
Q 1406 3038 1543 3061 
Q 1681 3084 1819 3084 
Q 2600 3084 3056 2656 
Q 3513 2228 3513 1497 
Q 3513 744 3044 326 
Q 2575 -91 1722 -91 
Q 1428 -91 1123 -41 
Q 819 9 494 109 
L 494 744 
Q 775 591 1075 516 
Q 1375 441 1709 441 
Q 2250 441 2565 725 
Q 2881 1009 2881 1497 
Q 2881 1984 2565 2268 
Q 2250 2553 1709 2553 
Q 1456 2553 1204 2497 
Q 953 2441 691 2322 
L 691 4666 
z
" transform="scale(0.015625)"/>
      </defs>
      <use xlink:href="#DejaVuSans-41"/>
      <use xlink:href="#DejaVuSans-35" x="68.408203"/>
     </g>
    </g>
   </g>
   <g id="text_6">
    <g clip-path="url(#p91bf959fdb)">
     <!-- A6 -->
     <g transform="translate(486.445477 176.731883) scale(0.12 -0.12)">
      <defs>
       <path id="DejaVuSans-36" d="M 2113 2584 
Q 1688 2584 1439 2293 
Q 1191 2003 1191 1497 
Q 1191 994 1439 701 
Q 1688 409 2113 409 
Q 2538 409 2786 701 
Q 3034 994 3034 1497 
Q 3034 2003 2786 2293 
Q 2538 2584 2113 2584 
z
M 3366 4563 
L 3366 3988 
Q 3128 4100 2886 4159 
Q 2644 4219 2406 4219 
Q 1781 4219 1451 3797 
Q 1122 3375 1075 2522 
Q 1259 2794 1537 2939 
Q 1816 3084 2150 3084 
Q 2853 3084 3261 2657 
Q 3669 2231 3669 1497 
Q 3669 778 3244 343 
Q 2819 -91 2113 -91 
Q 1303 -91 875 529 
Q 447 1150 447 2328 
Q 447 3434 972 4092 
Q 1497 4750 2381 4750 
Q 2619 4750 2861 4703 
Q 3103 4656 3366 4563 
z
" transform="scale(0.015625)"/>
      </defs>
      <use xlink:href="#DejaVuSans-41"/>
      <use xlink:href="#DejaVuSans-36" x="68.408203"/>
     </g>
    </g>
   </g>
   <g id="text_7">
    <g clip-path="url(#p91bf959fdb)">
     <!-- B1 -->
     <g transform="translate(173.424791 253.901699) scale(0.12 -0.12)">
      <defs>
       <path id="DejaVuSans-42" d="M 1259 2228 
L 1259 519 
L 2272 519 
Q 2781 519 3026 730 
Q 3272 941 3272 1375 
Q 3272 1813 3026 2020 
Q 2781 2228 2272 2228 
L 1259 2228 
z
M 1259 4147 
L 1259 2741 
L 2194 2741 
Q 2656 2741 2882 2914 
Q 3109 3088 3109 3444 
Q 3109 3797 2882 3972 
Q 2656 4147 2194 4147 
L 1259 4147 
z
M 628 4666 
L 2241 4666 
Q 2963 4666 3353 4366 
Q 3744 4066 3744 3513 
Q 3744 3084 3544 2831 
Q 3344 2578 2956 2516 
Q 3422 2416 3680 2098 
Q 3938 1781 3938 1306 
Q 3938 681 3513 340 
Q 3088 0 2303 0 
L 628 0 
L 628 4666 
z
" transform="scale(0.015625)"/>
      </defs>
      <use xlink:href="#DejaVuSans-42"/>
      <use xlink:href="#DejaVuSans-31" x="68.603516"/>
     </g>
    </g>
   </g>
   <g id="text_8">
    <g clip-path="url(#p91bf959fdb)">
     <!-- B2 -->
     <g transform="translate(344.656293 284.063774) scale(0.12 -0.12)">
      <use xlink:href="#DejaVuSans-42"/>
      <use xlink:href="#DejaVuSans-32" x="68.603516"/>
     </g>
    </g>
   </g>
   <g id="text_9">
    <g clip-path="url(#p91bf959fdb)">
     <!-- B3 -->
     <g transform="translate(189.337467 337.342517) scale(0.12 -0.12)">
      <use xlink:href="#DejaVuSans-42"/>
      <use xlink:href="#DejaVuSans-33" x="68.603516"/>
     </g>
    </g>
   </g>
   <g id="text_10">
    <g clip-path="url(#p91bf959fdb)">
     <!-- B4 -->
     <g transform="translate(328.990293 392.325317) scale(0.12 -0.12)">
      <use xlink:href="#DejaVuSans-42"/>
      <use xlink:href="#DejaVuSans-34" x="68.603516"/>
     </g>
    </g>
   </g>
   <g id="text_11">
    <g clip-path="url(#p91bf959fdb)">
     <!-- B5 -->
     <g transform="translate(186.533519 145.108384) scale(0.12 -0.12)">
      <use xlink:href="#DejaVuSans-42"/>
      <use xlink:href="#DejaVuSans-35" x="68.603516"/>
     </g>
    </g>
   </g>
   <g id="text_12">
    <g clip-path="url(#p91bf959fdb)">
     <!-- B6 -->
     <g transform="translate(327.571582 200.122719) scale(0.12 -0.12)">
      <use xlink:href="#DejaVuSans-42"/>
      <use xlink:href="#DejaVuSans-36" x="68.603516"/>
     </g>
    </g>
   </g>
  </g>
 </g>
 <defs>
  <clipPath id="p91bf959fdb">
   <rect x="0" y="0" width="531.36" height="530.64"/>
  </clipPath>
 </defs>
</svg>
