<?xml version="1.0" encoding="utf-8" standalone="no"?>
<!DOCTYPE svg PUBLIC "-//W3C//DTD SVG 1.1//EN"
  "http://www.w3.org/Graphics/SVG/1.1/DTD/svg11.dtd">
<svg xmlns:xlink="http://www.w3.org/1999/xlink" width="545.76pt" height="380.88pt" viewBox="0 0 545.76 380.88" xmlns="http://www.w3.org/2000/svg" version="1.1">
 <metadata>
  <rdf:RDF xmlns:dc="http://purl.org/dc/elements/1.1/" xmlns:cc="http://creativecommons.org/ns#" xmlns:rdf="http://www.w3.org/1999/02/22-rdf-syntax-ns#">
   <cc:Work>
    <dc:type rdf:resource="http://purl.org/dc/dcmitype/StillImage"/>
    <dc:date>2024-06-19T12:02:17.286824</dc:date>
    <dc:format>image/svg+xml</dc:format>
    <dc:creator>
     <cc:Agent>
      <dc:title>Matplotlib v3.6.3, https://matplotlib.org/</dc:title>
     </cc:Agent>
    </dc:creator>
   </cc:Work>
  </rdf:RDF>
 </metadata>
 <defs>
  <style type="text/css">*{stroke-linejoin: round; stroke-linecap: butt}</style>
 </defs>
 <g id="figure_1">
  <g id="patch_1">
   <path d="M 0 380.88 
L 545.76 380.88 
L 545.76 0 
L 0 0 
z
" style="fill: #ffffff"/>
  </g>
  <g id="axes_1">
   <g id="patch_2">
    <path d="M 0 380.88 
L 545.76 380.88 
L 545.76 0 
L 0 0 
z
" style="fill: #ffffff"/>
   </g>
   <g id="LineCollection_1">
    <path d="M 411.450996 211.85471 
L 432.753674 294.696612 
" clip-path="url(#p0e25f9e125)" style="fill: none; stroke: #000000; stroke-width: 3"/>
    <path d="M 411.450996 211.85471 
L 418.227937 129.748473 
" clip-path="url(#p0e25f9e125)" style="fill: none; stroke: #000000; stroke-width: 3"/>
    <path d="M 411.450996 211.85471 
L 337.242538 213.663248 
" clip-path="url(#p0e25f9e125)" style="fill: none; stroke-dasharray: 2,3.3; stroke-dashoffset: 0; stroke: #000000; stroke-width: 2"/>
    <path d="M 411.450996 211.85471 
L 348.606714 297.871422 
" clip-path="url(#p0e25f9e125)" style="fill: none; stroke-dasharray: 2,3.3; stroke-dashoffset: 0; stroke: #000000; stroke-width: 2"/>
    <path d="M 411.450996 211.85471 
L 317.955173 127.307185 
" clip-path="url(#p0e25f9e125)" style="fill: none; stroke-dasharray: 2,3.3; stroke-dashoffset: 0; stroke: #000000; stroke-width: 2"/>
    <path d="M 134.393522 168.769203 
L 113.006326 86.348742 
" clip-path="url(#p0e25f9e125)" style="fill: none; stroke: #000000; stroke-width: 3"/>
    <path d="M 134.393522 168.769203 
L 129.574216 249.602766 
" clip-path="url(#p0e25f9e125)" style="fill: none; stroke: #000000; stroke-width: 3"/>
    <path d="M 134.393522 168.769203 
L 209.755602 165.7457 
" clip-path="url(#p0e25f9e125)" style="fill: none; stroke-dasharray: 2,3.3; stroke-dashoffset: 0; stroke: #000000; stroke-width: 2"/>
    <path d="M 134.393522 168.769203 
L 228.147227 251.449917 
" clip-path="url(#p0e25f9e125)" style="fill: none; stroke-dasharray: 2,3.3; stroke-dashoffset: 0; stroke: #000000; stroke-width: 2"/>
    <path d="M 134.393522 168.769203 
L 196.431652 83.008578 
" clip-path="url(#p0e25f9e125)" style="fill: none; stroke-dasharray: 2,3.3; stroke-dashoffset: 0; stroke: #000000; stroke-width: 2"/>
    <path d="M 418.227937 129.748473 
L 317.955173 127.307185 
" clip-path="url(#p0e25f9e125)" style="fill: none; stroke-dasharray: 2,3.3; stroke-dashoffset: 0; stroke: #000000; stroke-width: 2"/>
    <path d="M 418.227937 129.748473 
L 337.242538 213.663248 
" clip-path="url(#p0e25f9e125)" style="fill: none; stroke-dasharray: 2,3.3; stroke-dashoffset: 0; stroke: #000000; stroke-width: 2"/>
    <path d="M 113.006326 86.348742 
L 196.431652 83.008578 
" clip-path="url(#p0e25f9e125)" style="fill: none; stroke-dasharray: 2,3.3; stroke-dashoffset: 0; stroke: #000000; stroke-width: 2"/>
    <path d="M 113.006326 86.348742 
L 209.755602 165.7457 
" clip-path="url(#p0e25f9e125)" style="fill: none; stroke-dasharray: 2,3.3; stroke-dashoffset: 0; stroke: #000000; stroke-width: 2"/>
    <path d="M 432.753674 294.696612 
L 348.606714 297.871422 
" clip-path="url(#p0e25f9e125)" style="fill: none; stroke-dasharray: 2,3.3; stroke-dashoffset: 0; stroke: #000000; stroke-width: 2"/>
    <path d="M 432.753674 294.696612 
L 337.242538 213.663248 
" clip-path="url(#p0e25f9e125)" style="fill: none; stroke-dasharray: 2,3.3; stroke-dashoffset: 0; stroke: #000000; stroke-width: 2"/>
    <path d="M 129.574216 249.602766 
L 228.147227 251.449917 
" clip-path="url(#p0e25f9e125)" style="fill: none; stroke-dasharray: 2,3.3; stroke-dashoffset: 0; stroke: #000000; stroke-width: 2"/>
    <path d="M 129.574216 249.602766 
L 209.755602 165.7457 
" clip-path="url(#p0e25f9e125)" style="fill: none; stroke-dasharray: 2,3.3; stroke-dashoffset: 0; stroke: #000000; stroke-width: 2"/>
    <path d="M 337.242538 213.663248 
L 348.606714 297.871422 
" clip-path="url(#p0e25f9e125)" style="fill: none; stroke: #000000; stroke-width: 3"/>
    <path d="M 337.242538 213.663248 
L 317.955173 127.307185 
" clip-path="url(#p0e25f9e125)" style="fill: none; stroke: #000000; stroke-width: 3"/>
    <path d="M 337.242538 213.663248 
L 228.147227 251.449917 
" clip-path="url(#p0e25f9e125)" style="fill: none; stroke-dasharray: 2,3.3; stroke-dashoffset: 0; stroke: #000000; stroke-width: 2"/>
    <path d="M 337.242538 213.663248 
L 209.755602 165.7457 
" clip-path="url(#p0e25f9e125)" style="fill: none; stroke-dasharray: 2,3.3; stroke-dashoffset: 0; stroke: #000000; stroke-width: 2"/>
    <path d="M 209.755602 165.7457 
L 196.431652 83.008578 
" clip-path="url(#p0e25f9e125)" style="fill: none; stroke: #000000; stroke-width: 3"/>
    <path d="M 209.755602 165.7457 
L 228.147227 251.449917 
" clip-path="url(#p0e25f9e125)" style="fill: none; stroke: #000000; stroke-width: 3"/>
    <path d="M 209.755602 165.7457 
L 317.955173 127.307185 
" clip-path="url(#p0e25f9e125)" style="fill: none; stroke-dasharray: 2,3.3; stroke-dashoffset: 0; stroke: #000000; stroke-width: 2"/>
    <path d="M 317.955173 127.307185 
L 196.431652 83.008578 
" clip-path="url(#p0e25f9e125)" style="fill: none; stroke-dasharray: 2,3.3; stroke-dashoffset: 0; stroke: #000000; stroke-width: 2"/>
    <path d="M 348.606714 297.871422 
L 228.147227 251.449917 
" clip-path="url(#p0e25f9e125)" style="fill: none; stroke-dasharray: 2,3.3; stroke-dashoffset: 0; stroke: #000000; stroke-width: 2"/>
   </g>
   <g id="PathCollection_1">
    <path d="M 411.450996 216.162982 
C 412.593564 216.162982 413.689488 215.709035 414.497405 214.901118 
C 415.305322 214.093201 415.759269 212.997277 415.759269 211.85471 
C 415.759269 210.712143 415.305322 209.616218 414.497405 208.808301 
C 413.689488 208.000384 412.593564 207.546437 411.450996 207.546437 
C 410.308429 207.546437 409.212505 208.000384 408.404588 208.808301 
C 407.596671 209.616218 407.142724 210.712143 407.142724 211.85471 
C 407.142724 212.997277 407.596671 214.093201 408.404588 214.901118 
C 409.212505 215.709035 410.308429 216.162982 411.450996 216.162982 
z
" clip-path="url(#p0e25f9e125)" style="fill: #9081dd; stroke: #9081dd"/>
    <path d="M 134.393522 173.084234 
C 135.537882 173.084234 136.635525 172.629575 137.44471 171.820391 
C 138.253894 171.011206 138.708553 169.913563 138.708553 168.769203 
C 138.708553 167.624844 138.253894 166.5272 137.44471 165.718016 
C 136.635525 164.908832 135.537882 164.454173 134.393522 164.454173 
C 133.249163 164.454173 132.151519 164.908832 131.342335 165.718016 
C 130.533151 166.5272 130.078492 167.624844 130.078492 168.769203 
C 130.078492 169.913563 130.533151 171.011206 131.342335 171.820391 
C 132.151519 172.629575 133.249163 173.084234 134.393522 173.084234 
z
" clip-path="url(#p0e25f9e125)" style="fill: #9081dd; stroke: #9081dd"/>
    <path d="M 418.227937 134.056744 
C 419.370504 134.056744 420.466428 133.602798 421.274345 132.794881 
C 422.082262 131.986964 422.536208 130.89104 422.536208 129.748473 
C 422.536208 128.605907 422.082262 127.509982 421.274345 126.702066 
C 420.466428 125.894149 419.370504 125.440202 418.227937 125.440202 
C 417.08537 125.440202 415.989446 125.894149 415.18153 126.702066 
C 414.373613 127.509982 413.919666 128.605907 413.919666 129.748473 
C 413.919666 130.89104 414.373613 131.986964 415.18153 132.794881 
C 415.989446 133.602798 417.08537 134.056744 418.227937 134.056744 
z
" clip-path="url(#p0e25f9e125)" style="fill: #9081dd; stroke: #9081dd"/>
    <path d="M 113.006326 90.663759 
C 114.150682 90.663759 115.248322 90.209102 116.057504 89.39992 
C 116.866686 88.590738 117.321343 87.493098 117.321343 86.348742 
C 117.321343 85.204386 116.866686 84.106746 116.057504 83.297564 
C 115.248322 82.488383 114.150682 82.033725 113.006326 82.033725 
C 111.86197 82.033725 110.76433 82.488383 109.955149 83.297564 
C 109.145967 84.106746 108.691309 85.204386 108.691309 86.348742 
C 108.691309 87.493098 109.145967 88.590738 109.955149 89.39992 
C 110.76433 90.209102 111.86197 90.663759 113.006326 90.663759 
z
" clip-path="url(#p0e25f9e125)" style="fill: #9081dd; stroke: #9081dd"/>
    <path d="M 432.753674 299.004883 
C 433.896241 299.004883 434.992165 298.550937 435.800082 297.74302 
C 436.607998 296.935103 437.061945 295.839179 437.061945 294.696612 
C 437.061945 293.554045 436.607998 292.458121 435.800082 291.650204 
C 434.992165 290.842287 433.896241 290.38834 432.753674 290.38834 
C 431.611107 290.38834 430.515183 290.842287 429.707266 291.650204 
C 428.899349 292.458121 428.445402 293.554045 428.445402 294.696612 
C 428.445402 295.839179 428.899349 296.935103 429.707266 297.74302 
C 430.515183 298.550937 431.611107 299.004883 432.753674 299.004883 
z
" clip-path="url(#p0e25f9e125)" style="fill: #9081dd; stroke: #9081dd"/>
    <path d="M 129.574216 253.917785 
C 130.718572 253.917785 131.816212 253.463127 132.625394 252.653945 
C 133.434576 251.844763 133.889234 250.747123 133.889234 249.602766 
C 133.889234 248.45841 133.434576 247.36077 132.625394 246.551588 
C 131.816212 245.742406 130.718572 245.287748 129.574216 245.287748 
C 128.429859 245.287748 127.332219 245.742406 126.523037 246.551588 
C 125.713855 247.36077 125.259197 248.45841 125.259197 249.602766 
C 125.259197 250.747123 125.713855 251.844763 126.523037 252.653945 
C 127.332219 253.463127 128.429859 253.917785 129.574216 253.917785 
z
" clip-path="url(#p0e25f9e125)" style="fill: #9081dd; stroke: #9081dd"/>
    <path d="M 337.242538 219.126001 
C 338.691276 219.126001 340.080874 218.550411 341.105287 217.525998 
C 342.1297 216.501584 342.70529 215.111987 342.70529 213.663248 
C 342.70529 212.214509 342.1297 210.824912 341.105287 209.800499 
C 340.080874 208.776086 338.691276 208.200496 337.242538 208.200496 
C 335.793799 208.200496 334.404201 208.776086 333.379788 209.800499 
C 332.355375 210.824912 331.779785 212.214509 331.779785 213.663248 
C 331.779785 215.111987 332.355375 216.501584 333.379788 217.525998 
C 334.404201 218.550411 335.793799 219.126001 337.242538 219.126001 
z
" clip-path="url(#p0e25f9e125)" style="fill: #b982c8; stroke: #b982c8"/>
    <path d="M 209.755602 171.203428 
C 211.203009 171.203428 212.591328 170.628368 213.614799 169.604897 
C 214.63827 168.581426 215.213331 167.193106 215.213331 165.7457 
C 215.213331 164.298293 214.63827 162.909974 213.614799 161.886503 
C 212.591328 160.863032 211.203009 160.287971 209.755602 160.287971 
C 208.308196 160.287971 206.919876 160.863032 205.896405 161.886503 
C 204.872934 162.909974 204.297874 164.298293 204.297874 165.7457 
C 204.297874 167.193106 204.872934 168.581426 205.896405 169.604897 
C 206.919876 170.628368 208.308196 171.203428 209.755602 171.203428 
z
" clip-path="url(#p0e25f9e125)" style="fill: #b982c8; stroke: #b982c8"/>
    <path d="M 317.955173 132.76995 
C 319.403916 132.76995 320.793516 132.194359 321.817932 131.169943 
C 322.842347 130.145528 323.417939 128.755927 323.417939 127.307185 
C 323.417939 125.858442 322.842347 124.468842 321.817932 123.444426 
C 320.793516 122.420011 319.403916 121.844419 317.955173 121.844419 
C 316.506431 121.844419 315.116831 122.420011 314.092415 123.444426 
C 313.068 124.468842 312.492408 125.858442 312.492408 127.307185 
C 312.492408 128.755927 313.068 130.145528 314.092415 131.169943 
C 315.116831 132.194359 316.506431 132.76995 317.955173 132.76995 
z
" clip-path="url(#p0e25f9e125)" style="fill: #b982c8; stroke: #b982c8"/>
    <path d="M 196.431652 88.46632 
C 197.879062 88.46632 199.267385 87.891258 200.290859 86.867785 
C 201.314333 85.844311 201.889395 84.455988 201.889395 83.008578 
C 201.889395 81.561167 201.314333 80.172844 200.290859 79.149371 
C 199.267385 78.125897 197.879062 77.550835 196.431652 77.550835 
C 194.984242 77.550835 193.595919 78.125897 192.572445 79.149371 
C 191.548972 80.172844 190.973909 81.561167 190.973909 83.008578 
C 190.973909 84.455988 191.548972 85.844311 192.572445 86.867785 
C 193.595919 87.891258 194.984242 88.46632 196.431652 88.46632 
z
" clip-path="url(#p0e25f9e125)" style="fill: #b982c8; stroke: #b982c8"/>
    <path d="M 348.606714 303.334185 
C 350.055455 303.334185 351.445055 302.758594 352.46947 301.734179 
C 353.493885 300.709764 354.069476 299.320164 354.069476 297.871422 
C 354.069476 296.422681 353.493885 295.033081 352.46947 294.008666 
C 351.445055 292.984251 350.055455 292.40866 348.606714 292.40866 
C 347.157972 292.40866 345.768372 292.984251 344.743957 294.008666 
C 343.719542 295.033081 343.143951 296.422681 343.143951 297.871422 
C 343.143951 299.320164 343.719542 300.709764 344.743957 301.734179 
C 345.768372 302.758594 347.157972 303.334185 348.606714 303.334185 
z
" clip-path="url(#p0e25f9e125)" style="fill: #b982c8; stroke: #b982c8"/>
    <path d="M 228.147227 256.907632 
C 229.59463 256.907632 230.982946 256.332573 232.006414 255.309105 
C 233.029883 254.285636 233.604942 252.89732 233.604942 251.449917 
C 233.604942 250.002514 233.029883 248.614198 232.006414 247.59073 
C 230.982946 246.567261 229.59463 245.992202 228.147227 245.992202 
C 226.699824 245.992202 225.311508 246.567261 224.28804 247.59073 
C 223.264571 248.614198 222.689512 250.002514 222.689512 251.449917 
C 222.689512 252.89732 223.264571 254.285636 224.28804 255.309105 
C 225.311508 256.332573 226.699824 256.907632 228.147227 256.907632 
z
" clip-path="url(#p0e25f9e125)" style="fill: #b982c8; stroke: #b982c8"/>
   </g>
   <g id="patch_3">
    <path d="M 0 380.88 
L 0 -0 
" style="fill: none; stroke: #000000; stroke-width: 0.8; stroke-linejoin: miter; stroke-linecap: square"/>
   </g>
   <g id="patch_4">
    <path d="M 545.76 380.88 
L 545.76 -0 
" style="fill: none; stroke: #000000; stroke-width: 0.8; stroke-linejoin: miter; stroke-linecap: square"/>
   </g>
   <g id="patch_5">
    <path d="M 0 380.88 
L 545.76 380.88 
" style="fill: none; stroke: #000000; stroke-width: 0.8; stroke-linejoin: miter; stroke-linecap: square"/>
   </g>
   <g id="patch_6">
    <path d="M 0 0 
L 545.76 0 
" style="fill: none; stroke: #000000; stroke-width: 0.8; stroke-linejoin: miter; stroke-linecap: square"/>
   </g>
   <g id="text_1">
    <g clip-path="url(#p0e25f9e125)">
     <!-- A1 -->
     <g transform="translate(403.529121 215.16596) scale(0.12 -0.12)">
      <defs>
       <path id="DejaVuSans-41" d="M 2188 4044 
L 1331 1722 
L 3047 1722 
L 2188 4044 
z
M 1831 4666 
L 2547 4666 
L 4325 0 
L 3669 0 
L 3244 1197 
L 1141 1197 
L 716 0 
L 50 0 
L 1831 4666 
z
" transform="scale(0.015625)"/>
       <path id="DejaVuSans-31" d="M 794 531 
L 1825 531 
L 1825 4091 
L 703 3866 
L 703 4441 
L 1819 4666 
L 2450 4666 
L 2450 531 
L 3481 531 
L 3481 0 
L 794 0 
L 794 531 
z
" transform="scale(0.015625)"/>
      </defs>
      <use xlink:href="#DejaVuSans-41"/>
      <use xlink:href="#DejaVuSans-31" x="68.408203"/>
     </g>
    </g>
   </g>
   <g id="text_2">
    <g clip-path="url(#p0e25f9e125)">
     <!-- A2 -->
     <g transform="translate(126.471647 172.080453) scale(0.12 -0.12)">
      <defs>
       <path id="DejaVuSans-32" d="M 1228 531 
L 3431 531 
L 3431 0 
L 469 0 
L 469 531 
Q 828 903 1448 1529 
Q 2069 2156 2228 2338 
Q 2531 2678 2651 2914 
Q 2772 3150 2772 3378 
Q 2772 3750 2511 3984 
Q 2250 4219 1831 4219 
Q 1534 4219 1204 4116 
Q 875 4013 500 3803 
L 500 4441 
Q 881 4594 1212 4672 
Q 1544 4750 1819 4750 
Q 2544 4750 2975 4387 
Q 3406 4025 3406 3419 
Q 3406 3131 3298 2873 
Q 3191 2616 2906 2266 
Q 2828 2175 2409 1742 
Q 1991 1309 1228 531 
z
" transform="scale(0.015625)"/>
      </defs>
      <use xlink:href="#DejaVuSans-41"/>
      <use xlink:href="#DejaVuSans-32" x="68.408203"/>
     </g>
    </g>
   </g>
   <g id="text_3">
    <g clip-path="url(#p0e25f9e125)">
     <!-- A3 -->
     <g transform="translate(410.306062 133.059723) scale(0.12 -0.12)">
      <defs>
       <path id="DejaVuSans-33" d="M 2597 2516 
Q 3050 2419 3304 2112 
Q 3559 1806 3559 1356 
Q 3559 666 3084 287 
Q 2609 -91 1734 -91 
Q 1441 -91 1130 -33 
Q 819 25 488 141 
L 488 750 
Q 750 597 1062 519 
Q 1375 441 1716 441 
Q 2309 441 2620 675 
Q 2931 909 2931 1356 
Q 2931 1769 2642 2001 
Q 2353 2234 1838 2234 
L 1294 2234 
L 1294 2753 
L 1863 2753 
Q 2328 2753 2575 2939 
Q 2822 3125 2822 3475 
Q 2822 3834 2567 4026 
Q 2313 4219 1838 4219 
Q 1578 4219 1281 4162 
Q 984 4106 628 3988 
L 628 4550 
Q 988 4650 1302 4700 
Q 1616 4750 1894 4750 
Q 2613 4750 3031 4423 
Q 3450 4097 3450 3541 
Q 3450 3153 3228 2886 
Q 3006 2619 2597 2516 
z
" transform="scale(0.015625)"/>
      </defs>
      <use xlink:href="#DejaVuSans-41"/>
      <use xlink:href="#DejaVuSans-33" x="68.408203"/>
     </g>
    </g>
   </g>
   <g id="text_4">
    <g clip-path="url(#p0e25f9e125)">
     <!-- A4 -->
     <g transform="translate(105.084451 89.659992) scale(0.12 -0.12)">
      <defs>
       <path id="DejaVuSans-34" d="M 2419 4116 
L 825 1625 
L 2419 1625 
L 2419 4116 
z
M 2253 4666 
L 3047 4666 
L 3047 1625 
L 3713 1625 
L 3713 1100 
L 3047 1100 
L 3047 0 
L 2419 0 
L 2419 1100 
L 313 1100 
L 313 1709 
L 2253 4666 
z
" transform="scale(0.015625)"/>
      </defs>
      <use xlink:href="#DejaVuSans-41"/>
      <use xlink:href="#DejaVuSans-34" x="68.408203"/>
     </g>
    </g>
   </g>
   <g id="text_5">
    <g clip-path="url(#p0e25f9e125)">
     <!-- A5 -->
     <g transform="translate(424.831799 298.007862) scale(0.12 -0.12)">
      <defs>
       <path id="DejaVuSans-35" d="M 691 4666 
L 3169 4666 
L 3169 4134 
L 1269 4134 
L 1269 2991 
Q 1406 3038 1543 3061 
Q 1681 3084 1819 3084 
Q 2600 3084 3056 2656 
Q 3513 2228 3513 1497 
Q 3513 744 3044 326 
Q 2575 -91 1722 -91 
Q 1428 -91 1123 -41 
Q 819 9 494 109 
L 494 744 
Q 775 591 1075 516 
Q 1375 441 1709 441 
Q 2250 441 2565 725 
Q 2881 1009 2881 1497 
Q 2881 1984 2565 2268 
Q 2250 2553 1709 2553 
Q 1456 2553 1204 2497 
Q 953 2441 691 2322 
L 691 4666 
z
" transform="scale(0.015625)"/>
      </defs>
      <use xlink:href="#DejaVuSans-41"/>
      <use xlink:href="#DejaVuSans-35" x="68.408203"/>
     </g>
    </g>
   </g>
   <g id="text_6">
    <g clip-path="url(#p0e25f9e125)">
     <!-- A6 -->
     <g transform="translate(121.652341 252.914016) scale(0.12 -0.12)">
      <defs>
       <path id="DejaVuSans-36" d="M 2113 2584 
Q 1688 2584 1439 2293 
Q 1191 2003 1191 1497 
Q 1191 994 1439 701 
Q 1688 409 2113 409 
Q 2538 409 2786 701 
Q 3034 994 3034 1497 
Q 3034 2003 2786 2293 
Q 2538 2584 2113 2584 
z
M 3366 4563 
L 3366 3988 
Q 3128 4100 2886 4159 
Q 2644 4219 2406 4219 
Q 1781 4219 1451 3797 
Q 1122 3375 1075 2522 
Q 1259 2794 1537 2939 
Q 1816 3084 2150 3084 
Q 2853 3084 3261 2657 
Q 3669 2231 3669 1497 
Q 3669 778 3244 343 
Q 2819 -91 2113 -91 
Q 1303 -91 875 529 
Q 447 1150 447 2328 
Q 447 3434 972 4092 
Q 1497 4750 2381 4750 
Q 2619 4750 2861 4703 
Q 3103 4656 3366 4563 
z
" transform="scale(0.015625)"/>
      </defs>
      <use xlink:href="#DejaVuSans-41"/>
      <use xlink:href="#DejaVuSans-36" x="68.408203"/>
     </g>
    </g>
   </g>
   <g id="text_7">
    <g clip-path="url(#p0e25f9e125)">
     <!-- B1 -->
     <g transform="translate(329.308475 216.974498) scale(0.12 -0.12)">
      <defs>
       <path id="DejaVuSans-42" d="M 1259 2228 
L 1259 519 
L 2272 519 
Q 2781 519 3026 730 
Q 3272 941 3272 1375 
Q 3272 1813 3026 2020 
Q 2781 2228 2272 2228 
L 1259 2228 
z
M 1259 4147 
L 1259 2741 
L 2194 2741 
Q 2656 2741 2882 2914 
Q 3109 3088 3109 3444 
Q 3109 3797 2882 3972 
Q 2656 4147 2194 4147 
L 1259 4147 
z
M 628 4666 
L 2241 4666 
Q 2963 4666 3353 4366 
Q 3744 4066 3744 3513 
Q 3744 3084 3544 2831 
Q 3344 2578 2956 2516 
Q 3422 2416 3680 2098 
Q 3938 1781 3938 1306 
Q 3938 681 3513 340 
Q 3088 0 2303 0 
L 628 0 
L 628 4666 
z
" transform="scale(0.015625)"/>
      </defs>
      <use xlink:href="#DejaVuSans-42"/>
      <use xlink:href="#DejaVuSans-31" x="68.603516"/>
     </g>
    </g>
   </g>
   <g id="text_8">
    <g clip-path="url(#p0e25f9e125)">
     <!-- B2 -->
     <g transform="translate(201.82154 169.05695) scale(0.12 -0.12)">
      <use xlink:href="#DejaVuSans-42"/>
      <use xlink:href="#DejaVuSans-32" x="68.603516"/>
     </g>
    </g>
   </g>
   <g id="text_9">
    <g clip-path="url(#p0e25f9e125)">
     <!-- B3 -->
     <g transform="translate(310.021111 130.618435) scale(0.12 -0.12)">
      <use xlink:href="#DejaVuSans-42"/>
      <use xlink:href="#DejaVuSans-33" x="68.603516"/>
     </g>
    </g>
   </g>
   <g id="text_10">
    <g clip-path="url(#p0e25f9e125)">
     <!-- B4 -->
     <g transform="translate(188.49759 86.319828) scale(0.12 -0.12)">
      <use xlink:href="#DejaVuSans-42"/>
      <use xlink:href="#DejaVuSans-34" x="68.603516"/>
     </g>
    </g>
   </g>
   <g id="text_11">
    <g clip-path="url(#p0e25f9e125)">
     <!-- B5 -->
     <g transform="translate(340.672651 301.182672) scale(0.12 -0.12)">
      <use xlink:href="#DejaVuSans-42"/>
      <use xlink:href="#DejaVuSans-35" x="68.603516"/>
     </g>
    </g>
   </g>
   <g id="text_12">
    <g clip-path="url(#p0e25f9e125)">
     <!-- B6 -->
     <g transform="translate(220.213164 254.761167) scale(0.12 -0.12)">
      <use xlink:href="#DejaVuSans-42"/>
      <use xlink:href="#DejaVuSans-36" x="68.603516"/>
     </g>
    </g>
   </g>
  </g>
 </g>
 <defs>
  <clipPath id="p0e25f9e125">
   <rect x="0" y="0" width="545.76" height="380.88"/>
  </clipPath>
 </defs>
</svg>
