<?xml version="1.0" encoding="utf-8" standalone="no"?>
<!DOCTYPE svg PUBLIC "-//W3C//DTD SVG 1.1//EN"
  "http://www.w3.org/Graphics/SVG/1.1/DTD/svg11.dtd">
<svg xmlns:xlink="http://www.w3.org/1999/xlink" width="372.24pt" height="279.36pt" viewBox="0 0 372.24 279.36" xmlns="http://www.w3.org/2000/svg" version="1.1">
 <metadata>
  <rdf:RDF xmlns:dc="http://purl.org/dc/elements/1.1/" xmlns:cc="http://creativecommons.org/ns#" xmlns:rdf="http://www.w3.org/1999/02/22-rdf-syntax-ns#">
   <cc:Work>
    <dc:type rdf:resource="http://purl.org/dc/dcmitype/StillImage"/>
    <dc:date>2024-06-19T11:59:53.355342</dc:date>
    <dc:format>image/svg+xml</dc:format>
    <dc:creator>
     <cc:Agent>
      <dc:title>Matplotlib v3.6.3, https://matplotlib.org/</dc:title>
     </cc:Agent>
    </dc:creator>
   </cc:Work>
  </rdf:RDF>
 </metadata>
 <defs>
  <style type="text/css">*{stroke-linejoin: round; stroke-linecap: butt}</style>
 </defs>
 <g id="figure_1">
  <g id="patch_1">
   <path d="M 0 279.36 
L 372.24 279.36 
L 372.24 0 
L 0 0 
z
" style="fill: #ffffff"/>
  </g>
  <g id="axes_1">
   <g id="patch_2">
    <path d="M 0 279.36 
L 372.24 279.36 
L 372.24 0 
L 0 0 
z
" style="fill: #ffffff"/>
   </g>
   <g id="LineCollection_1">
    <path d="M 339.795599 165.86937 
L 346.754997 259.271467 
" clip-path="url(#p28f2299c7a)" style="fill: none; stroke: #000000; stroke-width: 3"/>
    <path d="M 339.795599 165.86937 
L 329.083604 70.960335 
" clip-path="url(#p28f2299c7a)" style="fill: none; stroke: #000000; stroke-width: 3"/>
    <path d="M 339.795599 165.86937 
L 231.042317 162.782068 
" clip-path="url(#p28f2299c7a)" style="fill: none; stroke-dasharray: 2,3.3; stroke-dashoffset: 0; stroke: #000000; stroke-width: 2"/>
    <path d="M 34.206303 112.633044 
L 25.485003 20.088533 
" clip-path="url(#p28f2299c7a)" style="fill: none; stroke: #000000; stroke-width: 3"/>
    <path d="M 34.206303 112.633044 
L 44.221661 206.623367 
" clip-path="url(#p28f2299c7a)" style="fill: none; stroke: #000000; stroke-width: 3"/>
    <path d="M 34.206303 112.633044 
L 142.077369 113.215772 
" clip-path="url(#p28f2299c7a)" style="fill: none; stroke-dasharray: 2,3.3; stroke-dashoffset: 0; stroke: #000000; stroke-width: 2"/>
    <path d="M 329.083604 70.960335 
L 220.78003 66.669216 
" clip-path="url(#p28f2299c7a)" style="fill: none; stroke-dasharray: 2,3.3; stroke-dashoffset: 0; stroke: #000000; stroke-width: 2"/>
    <path d="M 25.485003 20.088533 
L 123.3905 24.759936 
" clip-path="url(#p28f2299c7a)" style="fill: none; stroke-dasharray: 2,3.3; stroke-dashoffset: 0; stroke: #000000; stroke-width: 2"/>
    <path d="M 346.754997 259.271467 
L 249.809702 253.143478 
" clip-path="url(#p28f2299c7a)" style="fill: none; stroke-dasharray: 2,3.3; stroke-dashoffset: 0; stroke: #000000; stroke-width: 2"/>
    <path d="M 44.221661 206.623367 
L 153.75071 210.485645 
" clip-path="url(#p28f2299c7a)" style="fill: none; stroke-dasharray: 2,3.3; stroke-dashoffset: 0; stroke: #000000; stroke-width: 2"/>
    <path d="M 231.042317 162.782068 
L 249.809702 253.143478 
" clip-path="url(#p28f2299c7a)" style="fill: none; stroke: #000000; stroke-width: 3"/>
    <path d="M 231.042317 162.782068 
L 220.78003 66.669216 
" clip-path="url(#p28f2299c7a)" style="fill: none; stroke: #000000; stroke-width: 3"/>
    <path d="M 231.042317 162.782068 
L 153.75071 210.485645 
" clip-path="url(#p28f2299c7a)" style="fill: none; stroke-dasharray: 2,3.3; stroke-dashoffset: 0; stroke: #000000; stroke-width: 2"/>
    <path d="M 231.042317 162.782068 
L 142.077369 113.215772 
" clip-path="url(#p28f2299c7a)" style="fill: none; stroke-dasharray: 2,3.3; stroke-dashoffset: 0; stroke: #000000; stroke-width: 2"/>
    <path d="M 142.077369 113.215772 
L 123.3905 24.759936 
" clip-path="url(#p28f2299c7a)" style="fill: none; stroke: #000000; stroke-width: 3"/>
    <path d="M 142.077369 113.215772 
L 153.75071 210.485645 
" clip-path="url(#p28f2299c7a)" style="fill: none; stroke: #000000; stroke-width: 3"/>
    <path d="M 142.077369 113.215772 
L 220.78003 66.669216 
" clip-path="url(#p28f2299c7a)" style="fill: none; stroke-dasharray: 2,3.3; stroke-dashoffset: 0; stroke: #000000; stroke-width: 2"/>
    <path d="M 220.78003 66.669216 
L 123.3905 24.759936 
" clip-path="url(#p28f2299c7a)" style="fill: none; stroke-dasharray: 2,3.3; stroke-dashoffset: 0; stroke: #000000; stroke-width: 2"/>
    <path d="M 249.809702 253.143478 
L 153.75071 210.485645 
" clip-path="url(#p28f2299c7a)" style="fill: none; stroke-dasharray: 2,3.3; stroke-dashoffset: 0; stroke: #000000; stroke-width: 2"/>
   </g>
   <g id="PathCollection_1">
    <path d="M 339.795599 170.177643 
C 340.938166 170.177643 342.03409 169.723696 342.842007 168.915779 
C 343.649924 168.107862 344.103871 167.011937 344.103871 165.86937 
C 344.103871 164.726803 343.649924 163.630879 342.842007 162.822962 
C 342.03409 162.015045 340.938166 161.561098 339.795599 161.561098 
C 338.653032 161.561098 337.557107 162.015045 336.74919 162.822962 
C 335.941273 163.630879 335.487326 164.726803 335.487326 165.86937 
C 335.487326 167.011937 335.941273 168.107862 336.74919 168.915779 
C 337.557107 169.723696 338.653032 170.177643 339.795599 170.177643 
z
" clip-path="url(#p28f2299c7a)" style="fill: #9081dd; stroke: #9081dd"/>
    <path d="M 34.206303 116.948074 
C 35.350662 116.948074 36.448306 116.493415 37.25749 115.684231 
C 38.066675 114.875047 38.521333 113.777403 38.521333 112.633044 
C 38.521333 111.488684 38.066675 110.391041 37.25749 109.581856 
C 36.448306 108.772672 35.350662 108.318013 34.206303 108.318013 
C 33.061943 108.318013 31.9643 108.772672 31.155116 109.581856 
C 30.345931 110.391041 29.891272 111.488684 29.891272 112.633044 
C 29.891272 113.777403 30.345931 114.875047 31.155116 115.684231 
C 31.9643 116.493415 33.061943 116.948074 34.206303 116.948074 
z
" clip-path="url(#p28f2299c7a)" style="fill: #9081dd; stroke: #9081dd"/>
    <path d="M 329.083604 75.268606 
C 330.226171 75.268606 331.322095 74.814659 332.130012 74.006742 
C 332.937929 73.198825 333.391875 72.102901 333.391875 70.960335 
C 333.391875 69.817768 332.937929 68.721844 332.130012 67.913927 
C 331.322095 67.10601 330.226171 66.652064 329.083604 66.652064 
C 327.941037 66.652064 326.845113 67.10601 326.037197 67.913927 
C 325.22928 68.721844 324.775333 69.817768 324.775333 70.960335 
C 324.775333 72.102901 325.22928 73.198825 326.037197 74.006742 
C 326.845113 74.814659 327.941037 75.268606 329.083604 75.268606 
z
" clip-path="url(#p28f2299c7a)" style="fill: #9081dd; stroke: #9081dd"/>
    <path d="M 25.485003 24.40355 
C 26.629359 24.40355 27.726999 23.948892 28.536181 23.139711 
C 29.345363 22.330529 29.80002 21.232889 29.80002 20.088533 
C 29.80002 18.944177 29.345363 17.846537 28.536181 17.037355 
C 27.726999 16.228173 26.629359 15.773516 25.485003 15.773516 
C 24.340648 15.773516 23.243007 16.228173 22.433826 17.037355 
C 21.624644 17.846537 21.169987 18.944177 21.169987 20.088533 
C 21.169987 21.232889 21.624644 22.330529 22.433826 23.139711 
C 23.243007 23.948892 24.340648 24.40355 25.485003 24.40355 
z
" clip-path="url(#p28f2299c7a)" style="fill: #9081dd; stroke: #9081dd"/>
    <path d="M 346.754997 263.579739 
C 347.897564 263.579739 348.993488 263.125792 349.801405 262.317875 
C 350.609321 261.509958 351.063268 260.414034 351.063268 259.271467 
C 351.063268 258.1289 350.609321 257.032976 349.801405 256.225059 
C 348.993488 255.417142 347.897564 254.963196 346.754997 254.963196 
C 345.61243 254.963196 344.516505 255.417142 343.708589 256.225059 
C 342.900672 257.032976 342.446725 258.1289 342.446725 259.271467 
C 342.446725 260.414034 342.900672 261.509958 343.708589 262.317875 
C 344.516505 263.125792 345.61243 263.579739 346.754997 263.579739 
z
" clip-path="url(#p28f2299c7a)" style="fill: #9081dd; stroke: #9081dd"/>
    <path d="M 44.221661 210.938385 
C 45.366017 210.938385 46.463658 210.483727 47.27284 209.674545 
C 48.082022 208.865363 48.536679 207.767723 48.536679 206.623367 
C 48.536679 205.47901 48.082022 204.38137 47.27284 203.572188 
C 46.463658 202.763006 45.366017 202.308348 44.221661 202.308348 
C 43.077305 202.308348 41.979664 202.763006 41.170482 203.572188 
C 40.3613 204.38137 39.906643 205.47901 39.906643 206.623367 
C 39.906643 207.767723 40.3613 208.865363 41.170482 209.674545 
C 41.979664 210.483727 43.077305 210.938385 44.221661 210.938385 
z
" clip-path="url(#p28f2299c7a)" style="fill: #9081dd; stroke: #9081dd"/>
    <path d="M 231.042317 168.244821 
C 232.491056 168.244821 233.880653 167.669231 234.905066 166.644817 
C 235.92948 165.620404 236.50507 164.230807 236.50507 162.782068 
C 236.50507 161.333329 235.92948 159.943732 234.905066 158.919319 
C 233.880653 157.894905 232.491056 157.319315 231.042317 157.319315 
C 229.593578 157.319315 228.203981 157.894905 227.179568 158.919319 
C 226.155154 159.943732 225.579564 161.333329 225.579564 162.782068 
C 225.579564 164.230807 226.155154 165.620404 227.179568 166.644817 
C 228.203981 167.669231 229.593578 168.244821 231.042317 168.244821 
z
" clip-path="url(#p28f2299c7a)" style="fill: #b982c8; stroke: #b982c8"/>
    <path d="M 142.077369 118.673501 
C 143.524775 118.673501 144.913095 118.09844 145.936566 117.074969 
C 146.960037 116.051498 147.535097 114.663179 147.535097 113.215772 
C 147.535097 111.768366 146.960037 110.380047 145.936566 109.356576 
C 144.913095 108.333105 143.524775 107.758044 142.077369 107.758044 
C 140.629962 107.758044 139.241643 108.333105 138.218172 109.356576 
C 137.194701 110.380047 136.61964 111.768366 136.61964 113.215772 
C 136.61964 114.663179 137.194701 116.051498 138.218172 117.074969 
C 139.241643 118.09844 140.629962 118.673501 142.077369 118.673501 
z
" clip-path="url(#p28f2299c7a)" style="fill: #b982c8; stroke: #b982c8"/>
    <path d="M 220.78003 72.131981 
C 222.228772 72.131981 223.618373 71.55639 224.642788 70.531974 
C 225.667204 69.507559 226.242795 68.117958 226.242795 66.669216 
C 226.242795 65.220474 225.667204 63.830873 224.642788 62.806457 
C 223.618373 61.782042 222.228772 61.206451 220.78003 61.206451 
C 219.331288 61.206451 217.941687 61.782042 216.917271 62.806457 
C 215.892856 63.830873 215.317264 65.220474 215.317264 66.669216 
C 215.317264 68.117958 215.892856 69.507559 216.917271 70.531974 
C 217.941687 71.55639 219.331288 72.131981 220.78003 72.131981 
z
" clip-path="url(#p28f2299c7a)" style="fill: #b982c8; stroke: #b982c8"/>
    <path d="M 123.3905 30.217679 
C 124.83791 30.217679 126.226233 29.642617 127.249707 28.619143 
C 128.273181 27.59567 128.848243 26.207347 128.848243 24.759936 
C 128.848243 23.312526 128.273181 21.924203 127.249707 20.900729 
C 126.226233 19.877256 124.83791 19.302194 123.3905 19.302194 
C 121.94309 19.302194 120.554767 19.877256 119.531293 20.900729 
C 118.507819 21.924203 117.932757 23.312526 117.932757 24.759936 
C 117.932757 26.207347 118.507819 27.59567 119.531293 28.619143 
C 120.554767 29.642617 121.94309 30.217679 123.3905 30.217679 
z
" clip-path="url(#p28f2299c7a)" style="fill: #b982c8; stroke: #b982c8"/>
    <path d="M 249.809702 258.606241 
C 251.258444 258.606241 252.648044 258.03065 253.672459 257.006235 
C 254.696874 255.98182 255.272465 254.59222 255.272465 253.143478 
C 255.272465 251.694737 254.696874 250.305137 253.672459 249.280722 
C 252.648044 248.256307 251.258444 247.680716 249.809702 247.680716 
C 248.360961 247.680716 246.971361 248.256307 245.946946 249.280722 
C 244.922531 250.305137 244.34694 251.694737 244.34694 253.143478 
C 244.34694 254.59222 244.922531 255.98182 245.946946 257.006235 
C 246.971361 258.03065 248.360961 258.606241 249.809702 258.606241 
z
" clip-path="url(#p28f2299c7a)" style="fill: #b982c8; stroke: #b982c8"/>
    <path d="M 153.75071 215.94336 
C 155.198113 215.94336 156.586429 215.368301 157.609897 214.344833 
C 158.633365 213.321364 159.208425 211.933048 159.208425 210.485645 
C 159.208425 209.038242 158.633365 207.649926 157.609897 206.626458 
C 156.586429 205.60299 155.198113 205.02793 153.75071 205.02793 
C 152.303307 205.02793 150.914991 205.60299 149.891522 206.626458 
C 148.868054 207.649926 148.292994 209.038242 148.292994 210.485645 
C 148.292994 211.933048 148.868054 213.321364 149.891522 214.344833 
C 150.914991 215.368301 152.303307 215.94336 153.75071 215.94336 
z
" clip-path="url(#p28f2299c7a)" style="fill: #b982c8; stroke: #b982c8"/>
   </g>
   <g id="patch_3">
    <path d="M 0 279.36 
L 0 0 
" style="fill: none; stroke: #000000; stroke-width: 0.8; stroke-linejoin: miter; stroke-linecap: square"/>
   </g>
   <g id="patch_4">
    <path d="M 372.24 279.36 
L 372.24 0 
" style="fill: none; stroke: #000000; stroke-width: 0.8; stroke-linejoin: miter; stroke-linecap: square"/>
   </g>
   <g id="patch_5">
    <path d="M -0 279.36 
L 372.24 279.36 
" style="fill: none; stroke: #000000; stroke-width: 0.8; stroke-linejoin: miter; stroke-linecap: square"/>
   </g>
   <g id="patch_6">
    <path d="M -0 0 
L 372.24 0 
" style="fill: none; stroke: #000000; stroke-width: 0.8; stroke-linejoin: miter; stroke-linecap: square"/>
   </g>
   <g id="text_1">
    <g clip-path="url(#p28f2299c7a)">
     <!-- A1 -->
     <g transform="translate(331.873724 169.18062) scale(0.12 -0.12)">
      <defs>
       <path id="DejaVuSans-41" d="M 2188 4044 
L 1331 1722 
L 3047 1722 
L 2188 4044 
z
M 1831 4666 
L 2547 4666 
L 4325 0 
L 3669 0 
L 3244 1197 
L 1141 1197 
L 716 0 
L 50 0 
L 1831 4666 
z
" transform="scale(0.015625)"/>
       <path id="DejaVuSans-31" d="M 794 531 
L 1825 531 
L 1825 4091 
L 703 3866 
L 703 4441 
L 1819 4666 
L 2450 4666 
L 2450 531 
L 3481 531 
L 3481 0 
L 794 0 
L 794 531 
z
" transform="scale(0.015625)"/>
      </defs>
      <use xlink:href="#DejaVuSans-41"/>
      <use xlink:href="#DejaVuSans-31" x="68.408203"/>
     </g>
    </g>
   </g>
   <g id="text_2">
    <g clip-path="url(#p28f2299c7a)">
     <!-- A2 -->
     <g transform="translate(26.284428 115.944294) scale(0.12 -0.12)">
      <defs>
       <path id="DejaVuSans-32" d="M 1228 531 
L 3431 531 
L 3431 0 
L 469 0 
L 469 531 
Q 828 903 1448 1529 
Q 2069 2156 2228 2338 
Q 2531 2678 2651 2914 
Q 2772 3150 2772 3378 
Q 2772 3750 2511 3984 
Q 2250 4219 1831 4219 
Q 1534 4219 1204 4116 
Q 875 4013 500 3803 
L 500 4441 
Q 881 4594 1212 4672 
Q 1544 4750 1819 4750 
Q 2544 4750 2975 4387 
Q 3406 4025 3406 3419 
Q 3406 3131 3298 2873 
Q 3191 2616 2906 2266 
Q 2828 2175 2409 1742 
Q 1991 1309 1228 531 
z
" transform="scale(0.015625)"/>
      </defs>
      <use xlink:href="#DejaVuSans-41"/>
      <use xlink:href="#DejaVuSans-32" x="68.408203"/>
     </g>
    </g>
   </g>
   <g id="text_3">
    <g clip-path="url(#p28f2299c7a)">
     <!-- A3 -->
     <g transform="translate(321.161729 74.271585) scale(0.12 -0.12)">
      <defs>
       <path id="DejaVuSans-33" d="M 2597 2516 
Q 3050 2419 3304 2112 
Q 3559 1806 3559 1356 
Q 3559 666 3084 287 
Q 2609 -91 1734 -91 
Q 1441 -91 1130 -33 
Q 819 25 488 141 
L 488 750 
Q 750 597 1062 519 
Q 1375 441 1716 441 
Q 2309 441 2620 675 
Q 2931 909 2931 1356 
Q 2931 1769 2642 2001 
Q 2353 2234 1838 2234 
L 1294 2234 
L 1294 2753 
L 1863 2753 
Q 2328 2753 2575 2939 
Q 2822 3125 2822 3475 
Q 2822 3834 2567 4026 
Q 2313 4219 1838 4219 
Q 1578 4219 1281 4162 
Q 984 4106 628 3988 
L 628 4550 
Q 988 4650 1302 4700 
Q 1616 4750 1894 4750 
Q 2613 4750 3031 4423 
Q 3450 4097 3450 3541 
Q 3450 3153 3228 2886 
Q 3006 2619 2597 2516 
z
" transform="scale(0.015625)"/>
      </defs>
      <use xlink:href="#DejaVuSans-41"/>
      <use xlink:href="#DejaVuSans-33" x="68.408203"/>
     </g>
    </g>
   </g>
   <g id="text_4">
    <g clip-path="url(#p28f2299c7a)">
     <!-- A4 -->
     <g transform="translate(17.563128 23.399783) scale(0.12 -0.12)">
      <defs>
       <path id="DejaVuSans-34" d="M 2419 4116 
L 825 1625 
L 2419 1625 
L 2419 4116 
z
M 2253 4666 
L 3047 4666 
L 3047 1625 
L 3713 1625 
L 3713 1100 
L 3047 1100 
L 3047 0 
L 2419 0 
L 2419 1100 
L 313 1100 
L 313 1709 
L 2253 4666 
z
" transform="scale(0.015625)"/>
      </defs>
      <use xlink:href="#DejaVuSans-41"/>
      <use xlink:href="#DejaVuSans-34" x="68.408203"/>
     </g>
    </g>
   </g>
   <g id="text_5">
    <g clip-path="url(#p28f2299c7a)">
     <!-- A5 -->
     <g transform="translate(338.833122 262.582717) scale(0.12 -0.12)">
      <defs>
       <path id="DejaVuSans-35" d="M 691 4666 
L 3169 4666 
L 3169 4134 
L 1269 4134 
L 1269 2991 
Q 1406 3038 1543 3061 
Q 1681 3084 1819 3084 
Q 2600 3084 3056 2656 
Q 3513 2228 3513 1497 
Q 3513 744 3044 326 
Q 2575 -91 1722 -91 
Q 1428 -91 1123 -41 
Q 819 9 494 109 
L 494 744 
Q 775 591 1075 516 
Q 1375 441 1709 441 
Q 2250 441 2565 725 
Q 2881 1009 2881 1497 
Q 2881 1984 2565 2268 
Q 2250 2553 1709 2553 
Q 1456 2553 1204 2497 
Q 953 2441 691 2322 
L 691 4666 
z
" transform="scale(0.015625)"/>
      </defs>
      <use xlink:href="#DejaVuSans-41"/>
      <use xlink:href="#DejaVuSans-35" x="68.408203"/>
     </g>
    </g>
   </g>
   <g id="text_6">
    <g clip-path="url(#p28f2299c7a)">
     <!-- A6 -->
     <g transform="translate(36.299786 209.934617) scale(0.12 -0.12)">
      <defs>
       <path id="DejaVuSans-36" d="M 2113 2584 
Q 1688 2584 1439 2293 
Q 1191 2003 1191 1497 
Q 1191 994 1439 701 
Q 1688 409 2113 409 
Q 2538 409 2786 701 
Q 3034 994 3034 1497 
Q 3034 2003 2786 2293 
Q 2538 2584 2113 2584 
z
M 3366 4563 
L 3366 3988 
Q 3128 4100 2886 4159 
Q 2644 4219 2406 4219 
Q 1781 4219 1451 3797 
Q 1122 3375 1075 2522 
Q 1259 2794 1537 2939 
Q 1816 3084 2150 3084 
Q 2853 3084 3261 2657 
Q 3669 2231 3669 1497 
Q 3669 778 3244 343 
Q 2819 -91 2113 -91 
Q 1303 -91 875 529 
Q 447 1150 447 2328 
Q 447 3434 972 4092 
Q 1497 4750 2381 4750 
Q 2619 4750 2861 4703 
Q 3103 4656 3366 4563 
z
" transform="scale(0.015625)"/>
      </defs>
      <use xlink:href="#DejaVuSans-41"/>
      <use xlink:href="#DejaVuSans-36" x="68.408203"/>
     </g>
    </g>
   </g>
   <g id="text_7">
    <g clip-path="url(#p28f2299c7a)">
     <!-- B1 -->
     <g transform="translate(223.108255 166.093318) scale(0.12 -0.12)">
      <defs>
       <path id="DejaVuSans-42" d="M 1259 2228 
L 1259 519 
L 2272 519 
Q 2781 519 3026 730 
Q 3272 941 3272 1375 
Q 3272 1813 3026 2020 
Q 2781 2228 2272 2228 
L 1259 2228 
z
M 1259 4147 
L 1259 2741 
L 2194 2741 
Q 2656 2741 2882 2914 
Q 3109 3088 3109 3444 
Q 3109 3797 2882 3972 
Q 2656 4147 2194 4147 
L 1259 4147 
z
M 628 4666 
L 2241 4666 
Q 2963 4666 3353 4366 
Q 3744 4066 3744 3513 
Q 3744 3084 3544 2831 
Q 3344 2578 2956 2516 
Q 3422 2416 3680 2098 
Q 3938 1781 3938 1306 
Q 3938 681 3513 340 
Q 3088 0 2303 0 
L 628 0 
L 628 4666 
z
" transform="scale(0.015625)"/>
      </defs>
      <use xlink:href="#DejaVuSans-42"/>
      <use xlink:href="#DejaVuSans-31" x="68.603516"/>
     </g>
    </g>
   </g>
   <g id="text_8">
    <g clip-path="url(#p28f2299c7a)">
     <!-- B2 -->
     <g transform="translate(134.143306 116.527022) scale(0.12 -0.12)">
      <use xlink:href="#DejaVuSans-42"/>
      <use xlink:href="#DejaVuSans-32" x="68.603516"/>
     </g>
    </g>
   </g>
   <g id="text_9">
    <g clip-path="url(#p28f2299c7a)">
     <!-- B3 -->
     <g transform="translate(212.845967 69.980466) scale(0.12 -0.12)">
      <use xlink:href="#DejaVuSans-42"/>
      <use xlink:href="#DejaVuSans-33" x="68.603516"/>
     </g>
    </g>
   </g>
   <g id="text_10">
    <g clip-path="url(#p28f2299c7a)">
     <!-- B4 -->
     <g transform="translate(115.456438 28.071186) scale(0.12 -0.12)">
      <use xlink:href="#DejaVuSans-42"/>
      <use xlink:href="#DejaVuSans-34" x="68.603516"/>
     </g>
    </g>
   </g>
   <g id="text_11">
    <g clip-path="url(#p28f2299c7a)">
     <!-- B5 -->
     <g transform="translate(241.87564 256.454728) scale(0.12 -0.12)">
      <use xlink:href="#DejaVuSans-42"/>
      <use xlink:href="#DejaVuSans-35" x="68.603516"/>
     </g>
    </g>
   </g>
   <g id="text_12">
    <g clip-path="url(#p28f2299c7a)">
     <!-- B6 -->
     <g transform="translate(145.816647 213.796895) scale(0.12 -0.12)">
      <use xlink:href="#DejaVuSans-42"/>
      <use xlink:href="#DejaVuSans-36" x="68.603516"/>
     </g>
    </g>
   </g>
  </g>
 </g>
 <defs>
  <clipPath id="p28f2299c7a">
   <rect x="0" y="0" width="372.24" height="279.36"/>
  </clipPath>
 </defs>
</svg>
